<svg version="1.1" id="Layer_1" xmlns="http://www.w3.org/2000/svg" xmlns:xlink="http://www.w3.org/1999/xlink" x="0px" y="0px"
	 width="100%" viewBox="0 0 225 225" enable-background="new 0 0 225 225" xml:space="preserve">
<path fill="#010101" opacity="1.000000" stroke="none" 
	d="
M128.000000,226.000000 
	C85.333336,226.000000 43.166672,226.000000 1.000006,226.000000 
	C1.000004,151.000000 1.000004,76.000015 1.000002,1.000016 
	C75.999992,1.000010 150.999985,1.000010 225.999969,1.000005 
	C225.999985,75.999985 225.999985,150.999969 226.000000,225.999969 
	C193.500000,226.000000 161.000000,226.000000 128.000000,226.000000 
M66.561996,135.940155 
	C66.743439,135.910248 66.924881,135.880341 68.022583,135.977280 
	C78.032692,135.932343 88.042801,135.887405 98.974159,135.976669 
	C108.941391,135.944611 118.908623,135.912552 129.827164,135.944702 
	C139.847260,135.933960 149.867340,135.923218 160.847427,135.991745 
	C170.735046,135.991745 180.622665,135.991745 190.415741,135.991745 
	C190.415741,103.824501 190.415741,72.460464 190.415741,40.918076 
	C179.970657,40.918076 169.850677,40.918076 158.828720,40.855019 
	C148.878464,40.908772 138.928207,40.962521 128.072235,40.764214 
	C118.065491,40.827976 108.058754,40.891739 97.129433,40.737923 
	C87.109596,40.810688 77.089752,40.883457 66.532806,40.835075 
	C66.353714,40.874157 66.174622,40.913242 65.070526,40.786598 
	C55.641373,40.786598 46.212215,40.786598 36.508003,40.786598 
	C36.508003,72.724968 36.508003,104.077377 36.508003,135.837372 
	C46.502995,135.837372 56.261497,135.837372 66.561996,135.940155 
M113.480606,185.787247 
	C116.949745,185.546371 120.517426,185.735336 123.865791,184.967667 
	C129.405151,183.697693 132.675522,177.682388 130.624390,172.527863 
	C129.718277,170.250793 127.564247,168.470322 125.966339,166.451263 
	C129.683594,162.596191 130.610397,159.543625 128.951569,155.847626 
	C127.231110,152.014359 123.981209,150.738556 120.007362,150.756256 
	C114.550835,150.780548 109.094109,150.762329 103.708900,150.762329 
	C103.708900,162.686691 103.708900,174.090698 103.708900,185.787231 
	C106.890266,185.787231 109.706619,185.787231 113.480606,185.787247 
M159.700165,159.459930 
	C159.248047,154.829651 157.216202,151.316589 152.209671,151.058365 
	C146.118881,150.744217 139.999542,150.983719 133.849426,150.983719 
	C133.849426,162.659622 133.849426,174.066605 133.849426,185.764648 
	C139.272202,185.764648 144.411591,185.861389 149.545593,185.737076 
	C154.532471,185.616302 158.888779,183.962799 160.528259,178.795273 
	C162.105286,173.824631 160.649551,169.634003 156.135056,167.345291 
	C157.412674,164.781433 158.547729,162.503677 159.700165,159.459930 
M49.030529,150.726395 
	C44.805103,150.726395 40.579678,150.726395 36.498207,150.726395 
	C36.498207,162.789169 36.498207,174.045837 36.498207,185.436874 
	C41.546371,185.436874 46.385475,185.949493 51.076157,185.332962 
	C61.699669,183.936615 65.479546,178.161972 65.016090,165.154770 
	C64.701851,156.335541 59.734703,151.597031 49.030529,150.726395 
M94.918442,153.468338 
	C84.404869,146.200455 71.540215,150.013458 68.639824,161.830460 
	C67.553307,166.257294 67.995453,171.478607 69.192505,175.948914 
	C71.013702,182.750076 76.781586,186.222122 83.961441,186.340530 
	C91.338676,186.462204 97.163307,182.895660 99.540726,176.168854 
	C102.390907,168.104431 101.753838,160.469757 94.918442,153.468338 
M172.139435,179.412872 
	C172.139435,181.367462 172.139435,183.322052 172.139435,185.480698 
	C173.982681,185.480698 175.346939,185.480698 177.028534,185.480698 
	C177.028534,183.559250 177.194275,181.899399 176.999008,180.283157 
	C176.266281,174.218491 177.950882,169.039352 181.709015,164.181610 
	C184.846252,160.126404 187.307449,155.548187 190.068054,151.201584 
	C180.058350,151.639008 180.522629,162.113708 174.436935,166.263260 
	C171.960312,162.337036 169.288483,158.519714 167.069565,154.455139 
	C165.196335,151.023758 162.924408,149.668549 159.135544,151.357132 
	C162.032166,155.756241 164.710449,160.144379 167.714355,164.296936 
	C170.813660,168.581406 173.105103,172.991318 172.139435,179.412872 
z"/>
<path fill="#FECC33" opacity="1.000000" stroke="none" 
	d="
M98.052910,135.842468 
	C88.042801,135.887405 78.032692,135.932343 67.534958,135.702606 
	C67.047340,135.427933 66.928772,135.018158 67.005013,134.553558 
	C67.030487,103.386230 66.979721,72.683517 66.985641,41.727608 
	C67.051521,41.301685 67.060722,41.128956 67.069916,40.956223 
	C77.089752,40.883457 87.109596,40.810688 97.592209,41.318390 
	C98.054291,73.213394 98.053596,104.527931 98.052910,135.842468 
z"/>
<path fill="#6E9EF4" opacity="1.000000" stroke="none" 
	d="
M98.513535,135.909576 
	C98.053596,104.527931 98.054291,73.213394 98.053497,41.427177 
	C108.058754,40.891739 118.065491,40.827976 128.496246,41.357113 
	C128.905457,73.260178 128.890656,104.570343 128.875854,135.880508 
	C118.908623,135.912552 108.941391,135.944611 98.513535,135.909576 
z"/>
<path fill="#363365" opacity="1.000000" stroke="none" 
	d="
M129.351501,135.912598 
	C128.890656,104.570343 128.905457,73.260178 128.949097,41.483143 
	C138.928207,40.962521 148.878464,40.908772 159.278137,41.360291 
	C159.780853,73.214523 159.834152,104.563492 159.887436,135.912460 
	C149.867340,135.923218 139.847260,135.933960 129.351501,135.912598 
z"/>
<path fill="#FC6565" opacity="1.000000" stroke="none" 
	d="
M160.367432,135.952103 
	C159.834152,104.563492 159.780853,73.214523 159.729141,41.391815 
	C169.850677,40.918076 179.970657,40.918076 190.415741,40.918076 
	C190.415741,72.460464 190.415741,103.824501 190.415741,135.991745 
	C180.622665,135.991745 170.735046,135.991745 160.367432,135.952103 
z"/>
<path fill="#53B553" opacity="1.000000" stroke="none" 
	d="
M66.928955,41.980801 
	C66.979721,72.683517 67.030487,103.386230 66.815994,134.644135 
	C66.312088,135.360641 66.135178,135.573334 66.019997,135.837372 
	C56.261497,135.837372 46.502995,135.837372 36.508003,135.837372 
	C36.508003,104.077377 36.508003,72.724968 36.508003,40.786598 
	C46.212215,40.786598 55.641373,40.786598 65.633255,41.086643 
	C66.377190,41.662594 66.621506,41.860630 66.928955,41.980801 
z"/>
<path fill="#EBEBEB" opacity="1.000000" stroke="none" 
	d="
M113.001785,185.787231 
	C109.706619,185.787231 106.890266,185.787231 103.708900,185.787231 
	C103.708900,174.090698 103.708900,162.686691 103.708900,150.762329 
	C109.094109,150.762329 114.550835,150.780548 120.007362,150.756256 
	C123.981209,150.738556 127.231110,152.014359 128.951569,155.847626 
	C130.610397,159.543625 129.683594,162.596191 125.966339,166.451263 
	C127.564247,168.470322 129.718277,170.250793 130.624390,172.527863 
	C132.675522,177.682388 129.405151,183.697693 123.865791,184.967667 
	C120.517426,185.735336 116.949745,185.546371 113.001785,185.787231 
M119.161331,181.181793 
	C123.267365,181.369766 126.071602,179.863647 126.008705,175.341553 
	C125.942680,170.595215 122.562904,169.864029 118.765495,169.860474 
	C115.340981,169.857269 111.916458,169.859787 108.592346,169.859787 
	C108.592346,173.942200 108.592346,177.368500 108.592346,181.182022 
	C111.961601,181.182022 115.094719,181.182022 119.161331,181.181793 
M108.317566,157.657974 
	C108.317566,160.099884 108.317566,162.541809 108.317566,165.342392 
	C112.360634,165.342392 115.976303,165.459641 119.580673,165.308197 
	C122.939751,165.167068 124.783485,163.255829 124.642159,159.843414 
	C124.510468,156.663467 122.606468,155.066742 119.498108,154.959412 
	C116.513763,154.856339 113.517227,154.743835 110.544044,154.927246 
	C109.769356,154.975037 109.061790,156.110870 108.317566,157.657974 
z"/>
<path fill="#F1F1F1" opacity="1.000000" stroke="none" 
	d="
M159.691467,159.842926 
	C158.547729,162.503677 157.412674,164.781433 156.135056,167.345291 
	C160.649551,169.634003 162.105286,173.824631 160.528259,178.795273 
	C158.888779,183.962799 154.532471,185.616302 149.545593,185.737076 
	C144.411591,185.861389 139.272202,185.764648 133.849426,185.764648 
	C133.849426,174.066605 133.849426,162.659622 133.849426,150.983719 
	C139.999542,150.983719 146.118881,150.744217 152.209671,151.058365 
	C157.216202,151.316589 159.248047,154.829651 159.691467,159.842926 
M155.949265,177.139099 
	C155.966293,171.467407 154.659637,170.018158 149.120499,169.857117 
	C145.677979,169.757019 142.230179,169.838516 138.756226,169.838516 
	C138.756226,173.871429 138.756226,177.408356 138.756226,181.207001 
	C142.583588,181.207001 146.123825,181.598251 149.519150,181.065689 
	C151.683960,180.726151 153.634094,179.018036 155.949265,177.139099 
M147.935623,165.518570 
	C151.551895,165.357330 154.866119,164.465652 154.766937,160.054276 
	C154.659973,155.296600 151.038498,154.797913 147.292007,154.816116 
	C144.376663,154.830292 141.461182,154.818954 138.756775,154.818954 
	C138.756775,158.809128 138.756775,162.032761 138.756775,165.523422 
	C141.783905,165.523422 144.431442,165.523422 147.935623,165.518570 
z"/>
<path fill="#EDEDED" opacity="1.000000" stroke="none" 
	d="
M49.470642,150.735580 
	C59.734703,151.597031 64.701851,156.335541 65.016090,165.154770 
	C65.479546,178.161972 61.699669,183.936615 51.076157,185.332962 
	C46.385475,185.949493 41.546371,185.436874 36.498207,185.436874 
	C36.498207,174.045837 36.498207,162.789169 36.498207,150.726395 
	C40.579678,150.726395 44.805103,150.726395 49.470642,150.735580 
M41.111240,162.557129 
	C41.111240,168.667648 41.111240,174.778152 41.111240,181.283554 
	C47.377190,180.595047 54.184040,183.354645 58.099983,176.462997 
	C61.254650,170.911102 61.374897,164.787323 58.185188,159.368500 
	C54.282082,152.737686 47.388618,155.397232 41.111240,154.826889 
	C41.111240,157.334106 41.111240,159.453415 41.111240,162.557129 
z"/>
<path fill="#F3F3F3" opacity="1.000000" stroke="none" 
	d="
M95.177322,153.732635 
	C101.753838,160.469757 102.390907,168.104431 99.540726,176.168854 
	C97.163307,182.895660 91.338676,186.462204 83.961441,186.340530 
	C76.781586,186.222122 71.013702,182.750076 69.192505,175.948914 
	C67.995453,171.478607 67.553307,166.257294 68.639824,161.830460 
	C71.540215,150.013458 84.404869,146.200455 95.177322,153.732635 
M72.754158,165.805847 
	C72.761871,167.459793 72.646973,169.125076 72.798866,170.765671 
	C73.404755,177.310043 77.510063,181.758514 83.157806,182.107986 
	C89.653122,182.509903 93.968803,179.222229 95.704170,172.550262 
	C97.835426,164.356262 93.908478,155.953247 87.137787,154.219666 
	C80.224823,152.449646 74.650803,156.628143 72.754158,165.805847 
z"/>
<path fill="#F0F0F0" opacity="1.000000" stroke="none" 
	d="
M172.139435,178.948853 
	C173.105103,172.991318 170.813660,168.581406 167.714355,164.296936 
	C164.710449,160.144379 162.032166,155.756241 159.135544,151.357132 
	C162.924408,149.668549 165.196335,151.023758 167.069565,154.455139 
	C169.288483,158.519714 171.960312,162.337036 174.436935,166.263260 
	C180.522629,162.113708 180.058350,151.639008 190.068054,151.201584 
	C187.307449,155.548187 184.846252,160.126404 181.709015,164.181610 
	C177.950882,169.039352 176.266281,174.218491 176.999008,180.283157 
	C177.194275,181.899399 177.028534,183.559250 177.028534,185.480698 
	C175.346939,185.480698 173.982681,185.480698 172.139435,185.480698 
	C172.139435,183.322052 172.139435,181.367462 172.139435,178.948853 
z"/>
<path fill="#45B656" opacity="1.000000" stroke="none" 
	d="
M66.291000,135.888763 
	C66.135178,135.573334 66.312088,135.360641 66.739761,135.108734 
	C66.928772,135.018158 67.047340,135.427933 67.076828,135.639191 
	C66.924881,135.880341 66.743439,135.910248 66.291000,135.888763 
z"/>
<path fill="#45B656" opacity="1.000000" stroke="none" 
	d="
M66.985641,41.727608 
	C66.621506,41.860630 66.377190,41.662594 66.095764,41.169506 
	C66.174622,40.913242 66.353714,40.874157 66.801361,40.895649 
	C67.060722,41.128956 67.051521,41.301685 66.985641,41.727608 
z"/>
<path fill="#070707" opacity="1.000000" stroke="none" 
	d="
M118.694580,181.181915 
	C115.094719,181.182022 111.961601,181.182022 108.592346,181.182022 
	C108.592346,177.368500 108.592346,173.942200 108.592346,169.859787 
	C111.916458,169.859787 115.340981,169.857269 118.765495,169.860474 
	C122.562904,169.864029 125.942680,170.595215 126.008705,175.341553 
	C126.071602,179.863647 123.267365,181.369766 118.694580,181.181915 
z"/>
<path fill="#111111" opacity="1.000000" stroke="none" 
	d="
M108.320480,157.202484 
	C109.061790,156.110870 109.769356,154.975037 110.544044,154.927246 
	C113.517227,154.743835 116.513763,154.856339 119.498108,154.959412 
	C122.606468,155.066742 124.510468,156.663467 124.642159,159.843414 
	C124.783485,163.255829 122.939751,165.167068 119.580673,165.308197 
	C115.976303,165.459641 112.360634,165.342392 108.317566,165.342392 
	C108.317566,162.541809 108.317566,160.099884 108.320480,157.202484 
z"/>
<path fill="#090909" opacity="1.000000" stroke="none" 
	d="
M155.814865,177.531311 
	C153.634094,179.018036 151.683960,180.726151 149.519150,181.065689 
	C146.123825,181.598251 142.583588,181.207001 138.756226,181.207001 
	C138.756226,177.408356 138.756226,173.871429 138.756226,169.838516 
	C142.230179,169.838516 145.677979,169.757019 149.120499,169.857117 
	C154.659637,170.018158 155.966293,171.467407 155.814865,177.531311 
z"/>
<path fill="#121212" opacity="1.000000" stroke="none" 
	d="
M147.507294,165.520996 
	C144.431442,165.523422 141.783905,165.523422 138.756775,165.523422 
	C138.756775,162.032761 138.756775,158.809128 138.756775,154.818954 
	C141.461182,154.818954 144.376663,154.830292 147.292007,154.816116 
	C151.038498,154.797913 154.659973,155.296600 154.766937,160.054276 
	C154.866119,164.465652 151.551895,165.357330 147.507294,165.520996 
z"/>
<path fill="#030303" opacity="1.000000" stroke="none" 
	d="
M41.111240,162.064926 
	C41.111240,159.453415 41.111240,157.334106 41.111240,154.826889 
	C47.388618,155.397232 54.282082,152.737686 58.185188,159.368500 
	C61.374897,164.787323 61.254650,170.911102 58.099983,176.462997 
	C54.184040,183.354645 47.377190,180.595047 41.111240,181.283554 
	C41.111240,174.778152 41.111240,168.667648 41.111240,162.064926 
z"/>
<path fill="#030303" opacity="1.000000" stroke="none" 
	d="
M72.800797,165.369049 
	C74.650803,156.628143 80.224823,152.449646 87.137787,154.219666 
	C93.908478,155.953247 97.835426,164.356262 95.704170,172.550262 
	C93.968803,179.222229 89.653122,182.509903 83.157806,182.107986 
	C77.510063,181.758514 73.404755,177.310043 72.798866,170.765671 
	C72.646973,169.125076 72.761871,167.459793 72.800797,165.369049 
z"/>
</svg>